<?xml version="1.0" encoding="UTF-8" standalone="no"?><!DOCTYPE svg PUBLIC "-//W3C//DTD SVG 1.1//EN" "http://www.w3.org/Graphics/SVG/1.1/DTD/svg11.dtd"><svg width="42px" height="42px" version="1.1" xmlns="http://www.w3.org/2000/svg" xmlns:xlink="http://www.w3.org/1999/xlink" xml:space="preserve" xmlns:serif="http://www.serif.com/" style="fill-rule:evenodd;clip-rule:evenodd;stroke-linejoin:round;stroke-miterlimit:1.41421;"><path d="M12.577,26.85C12.451,26.853 10.685,27.621 10.077,27.744C9.897,27.744 8.571,28.292 8.528,28.161L8.528,28.1C8.528,27.926 8.801,27.777 8.9,27.691C9.713,26.979 10.561,26.305 11.327,25.539C11.683,25.244 12.218,24.827 12.398,24.648C12.64,24.527 12.673,24.211 12.547,24.004C12.17,23.388 11.531,22.769 11.029,22.266C10.91,22.087 10.731,21.849 10.67,21.731C10.627,21.685 10.574,21.607 10.518,21.521L10.407,21.344C10.352,21.259 10.299,21.18 10.253,21.135C10.107,21.036 9.66,20.122 9.599,20.064C9.458,19.986 8.745,17.468 8.766,17.324C8.766,17.324 8.586,16.253 8.528,15.894C8.468,15.24 8.468,14.942 8.586,13.454L8.586,12.8L8.647,12.8C8.766,12.8 9.003,13.156 9.003,13.156C9.397,14.401 9.561,15.104 10.253,16.073C10.882,16.702 11.675,17.879 12.322,18.493C12.751,18.897 13.218,19.261 13.708,19.587C14.734,20.203 16.191,20.354 17.28,20.718C17.28,20.718 21.507,20.955 21.745,20.837C22.103,20.718 24.008,20.003 24.066,19.943C24.066,19.943 25.495,19.109 25.614,18.99C25.718,18.137 26.331,15.28 26.569,15.538C26.842,15.227 27.205,15.081 27.698,15.182L27.996,15.477C28.236,15.717 28.354,15.836 28.473,15.836C28.592,15.775 28.829,15.359 29.069,14.823C29.127,14.586 29.246,14.407 29.246,14.407C29.246,14.348 29.307,14.169 29.367,13.99L29.428,13.762L29.605,13.275C29.784,12.858 29.784,12.621 29.842,11.727C29.903,11.133 29.903,9.941 29.903,9.108L29.842,7.62L30.021,7.62C30.398,7.62 30.478,8.077 30.675,8.274C31.004,8.711 30.855,8.779 31.153,9.226C31.256,9.54 31.314,10.115 31.39,10.419C31.628,11.073 31.807,11.967 31.868,12.858L31.969,13.512L32.044,14.05L32.125,14.068L32.224,13.99L32.342,13.631L32.461,13.038C32.461,12.56 32.504,12.085 32.522,11.608C32.529,11.368 32.507,11.126 32.537,10.886C32.547,10.802 32.565,10.694 32.64,10.656L32.701,10.595L32.878,10.656C33.158,10.795 33.236,12.323 33.236,12.679C33.355,13.394 33.474,16.728 33.355,16.907C33.355,17.026 33.294,17.086 33.294,17.205L33.236,17.324L33.236,16.967L33.118,17.384C33.057,17.561 32.999,17.98 32.938,18.218C32.938,18.339 32.911,18.488 32.875,18.589C32.868,18.624 32.855,18.66 32.82,18.692L32.759,18.814L32.759,18.753C32.759,18.753 32.759,18.692 32.82,18.692C32.837,18.675 32.858,18.637 32.875,18.589C32.878,18.564 32.878,18.538 32.878,18.516L32.878,18.397L32.759,18.574C32.613,18.867 32.754,19.296 32.522,19.526C32.522,19.647 32.461,19.766 32.461,19.766C32.461,19.824 32.403,19.885 32.342,20.003C32.32,20.026 32.163,20.349 32.163,20.42C32.077,20.508 31.883,20.91 31.868,20.955C31.746,21.074 31.628,21.253 31.628,21.253C31.628,21.314 31.509,21.491 31.451,21.612C31.307,21.754 31.125,22.021 31.034,22.206C30.913,22.324 30.794,22.446 30.794,22.446C30.794,22.504 30.377,22.981 29.842,23.516C29.64,23.696 29.395,23.83 29.223,24.034C28.827,24.501 29.534,24.994 29.784,25.244C30.064,25.383 31.034,26.135 31.034,26.135C31.034,26.135 32.206,26.951 32.522,27.267L33.534,28.219L33.416,28.28C33.355,28.338 32.82,28.161 32.82,28.161L32.582,28.042C32.582,28.042 30.794,27.386 30.319,27.267L29.784,27.03C29.544,26.911 29.248,26.85 29.127,26.85L28.89,26.85L28.829,26.911L28.829,27.03L29.127,27.206C29.903,27.744 31.271,28.815 31.271,28.815L31.57,28.994L32.224,29.53L32.64,29.886C32.764,29.987 32.901,30.091 33.057,30.126C33.125,30.141 32.82,30.661 32.82,30.601C32.759,30.601 32.522,30.543 32.522,30.543L31.986,30.303C31.514,30.116 31.011,29.995 30.557,29.767C30.201,29.649 30.14,29.588 29.903,29.53C29.723,29.469 29.544,29.411 29.367,29.351C29.233,29.285 28.592,29.113 28.592,29.113L28.114,28.934L27.758,28.815C27.758,28.815 26.786,28.578 26.687,28.578C26.569,28.459 25.735,28.219 25.197,28.161C25.021,28.1 23.834,27.921 23.834,27.921C23.773,27.921 22.52,27.744 21.149,27.744L18.618,27.835L17.994,27.921L16.923,28.1C16.923,28.1 15.969,28.28 15.731,28.338C15.534,28.403 15.282,28.371 15.135,28.517C14.953,28.517 14.6,28.636 14.6,28.636L14.125,28.755C14.125,28.755 13.35,28.934 13.35,28.994C13.35,28.994 12.413,29.166 12.236,29.285C11.996,29.406 11.15,29.737 10.731,29.947C10.478,29.947 9.715,30.224 9.715,30.224L9.539,30.303L9.306,30.358L9.064,30.482L8.735,30.134C8.735,30.134 9.372,29.727 9.627,29.51C10.044,29.093 10.526,28.739 10.526,28.739C10.526,28.739 11.029,28.398 11.743,27.744C11.993,27.441 12.754,27.03 12.754,26.911L12.754,26.85L12.577,26.85Z" style="fill:white;"/><path d="M20.224,41.105C20.74,41.128 21.26,41.15 21.773,41.105C21.924,41.09 22.053,40.991 22.189,40.925C23.235,40.425 24.584,39.632 24.584,39.632L25.882,38.842C25.899,38.963 30.18,35.556 31.655,32.591C31.716,32.472 31.835,32.293 31.835,32.293L31.835,32.174L31.895,32.174C31.895,32.174 32.014,32.056 32.072,31.934C32.133,31.757 32.312,31.518 32.431,31.341C32.729,30.805 32.847,30.626 32.847,30.565C32.787,30.565 32.549,30.507 32.549,30.507L32.014,30.267C31.542,30.08 31.039,29.959 30.585,29.732C30.228,29.613 30.168,29.555 29.93,29.495C29.751,29.434 29.572,29.376 29.395,29.315C29.261,29.25 28.62,29.078 28.62,29.078L28.145,28.898L27.786,28.78C27.786,28.78 26.814,28.542 26.715,28.542C26.597,28.424 25.763,28.184 25.225,28.126C25.048,28.065 23.861,27.886 23.861,27.886C23.801,27.886 22.548,27.709 21.177,27.709L18.646,27.8L18.022,27.886L16.951,28.065C16.951,28.065 15.999,28.244 15.759,28.302C15.562,28.368 15.312,28.335 15.163,28.482C14.981,28.482 14.628,28.6 14.628,28.6L14.153,28.719C14.153,28.719 13.377,28.898 13.377,28.959C13.377,28.959 12.443,29.131 12.264,29.252C12.026,29.371 11.18,29.702 10.758,29.911C10.508,29.911 9.743,30.192 9.743,30.192L9.569,30.267L9.334,30.323C9.334,30.323 9.213,30.341 9.094,30.341L9.092,30.447L9.092,30.626C9.092,30.745 9.152,30.863 9.271,31.043C9.799,31.571 11.233,34.104 12.009,34.973C13.542,36.685 14.148,37.291 15.656,38.488C15.668,38.498 16.961,39.496 17.189,39.617C18.186,40.14 19.209,40.615 20.224,41.105M9.655,29.474C10.071,29.058 10.554,28.704 10.554,28.704C10.554,28.704 11.056,28.363 11.771,27.709C12.021,27.408 12.784,26.994 12.784,26.875L12.784,26.815L12.605,26.815C12.486,26.815 10.715,27.585 10.104,27.709C9.925,27.709 8.599,28.257 8.556,28.126L8.556,28.065C8.556,27.891 8.829,27.742 8.927,27.656C9.741,26.944 10.589,26.269 11.354,25.504C11.711,25.209 12.246,24.792 12.425,24.613C12.668,24.491 12.701,24.176 12.574,23.968C12.201,23.352 11.559,22.733 11.056,22.231C10.938,22.052 10.758,21.814 10.698,21.695C10.579,21.577 10.402,21.218 10.281,21.099C10.135,21.001 9.688,20.087 9.627,20.029C9.486,19.95 8.773,17.432 8.793,17.288C8.793,17.288 8.614,16.217 8.556,15.861C8.495,15.205 8.495,14.907 8.614,13.419L8.614,12.884L8.614,12.765L8.675,12.765C8.793,12.765 9.031,13.121 9.031,13.121C9.425,14.366 9.589,15.068 10.281,16.038C10.91,16.667 11.703,17.844 12.352,18.458C12.779,18.862 13.246,19.225 13.736,19.551C14.762,20.167 16.219,20.319 17.307,20.683C17.307,20.683 21.535,20.92 21.773,20.801C22.131,20.683 24.036,19.968 24.096,19.91C24.096,19.91 25.523,19.076 25.644,18.955C25.745,18.101 26.359,15.245 26.597,15.503C26.869,15.192 27.233,15.045 27.728,15.147L28.024,15.442C28.263,15.682 28.382,15.801 28.501,15.801C28.62,15.74 28.857,15.323 29.097,14.788C29.155,14.55 29.276,14.371 29.276,14.371C29.276,14.313 29.334,14.134 29.395,13.954L29.456,13.727L29.632,13.24C29.812,12.823 29.812,12.586 29.87,11.691C29.93,11.098 29.93,9.906 29.93,9.072L29.87,7.585L30.049,7.585C30.425,7.585 30.506,8.042 30.703,8.239C31.032,8.676 30.883,8.744 31.181,9.191C31.284,9.504 31.342,10.08 31.418,10.383C31.655,11.037 31.835,11.931 31.895,12.823L31.996,13.48L32.072,14.015L32.153,14.033L32.251,13.954L32.37,13.598L32.491,13.002C32.491,12.525 32.534,12.05 32.549,11.573C32.557,11.333 32.534,11.09 32.565,10.85C32.575,10.767 32.592,10.658 32.668,10.621L32.729,10.56L32.908,10.621C33.186,10.76 33.264,12.288 33.264,12.646C33.383,13.358 33.502,16.695 33.383,16.872C33.383,16.99 33.325,17.051 33.325,17.17L33.264,17.288L33.264,17.111L33.264,16.932L33.145,17.349C33.085,17.528 33.027,17.945 32.966,18.182C32.966,18.362 32.908,18.599 32.847,18.657L32.787,18.778L32.787,18.718C32.787,18.718 32.787,18.657 32.847,18.657C32.908,18.599 32.908,18.538 32.908,18.48L32.908,18.362L32.787,18.538C32.64,18.831 32.782,19.261 32.549,19.493C32.549,19.612 32.491,19.731 32.491,19.731C32.491,19.789 32.431,19.849 32.37,19.968C32.347,19.991 32.193,20.314 32.193,20.385C32.105,20.473 31.91,20.875 31.895,20.92C31.777,21.039 31.655,21.218 31.655,21.218C31.655,21.279 31.537,21.455 31.479,21.577C31.335,21.718 31.153,21.988 31.062,22.17C30.943,22.289 30.822,22.41 30.822,22.41C30.822,22.468 30.405,22.946 29.87,23.481C29.668,23.66 29.423,23.794 29.251,23.999C28.854,24.466 29.562,24.959 29.812,25.209C30.092,25.347 31.062,26.1 31.062,26.1C31.062,26.1 32.234,26.916 32.549,27.232L33.562,28.184L33.444,28.244C33.383,28.302 32.847,28.126 32.847,28.126L32.61,28.007C32.61,28.007 30.822,27.35 30.347,27.232L29.812,26.994C29.572,26.875 29.276,26.815 29.155,26.815L28.918,26.815L28.857,26.875L28.857,26.994L29.155,27.173C29.93,27.709 31.299,28.78 31.299,28.78L31.597,28.959L32.251,29.495L32.668,29.851C32.792,29.954 32.928,30.055 33.085,30.091C33.153,30.106 33.231,30.048 33.272,29.99C33.749,29.27 33.595,29.189 33.979,28.424C33.979,28.302 34.992,26.042 35.05,25.744C35.05,25.744 35.287,24.85 35.348,24.731C35.408,24.671 37.431,17.349 37.492,16.99C37.492,16.573 38.146,9.191 38.086,9.072C35.502,10.974 31.024,5.918 33.204,4.011C33.027,3.892 25.983,0.937 25.983,0.937C25.905,0.937 23.321,2.809 21.492,2.804C19.068,2.796 17.249,0.915 17.249,0.915C17.189,0.915 9.031,3.953 8.973,3.953C9.379,7.88 7.738,9.537 3.911,8.774L3.911,8.893C3.851,9.133 3.851,12.646 3.911,12.646L4.03,13.598L4.149,14.788C4.209,16.217 4.684,18.836 5.399,21.635C5.816,23.244 6.412,25.029 6.77,25.923C6.77,25.981 6.889,26.279 7.008,26.577C7.308,27.424 7.907,28.656 8.283,29.469C8.364,29.638 8.49,30.086 8.763,30.098C9.167,30.121 9.4,29.692 9.655,29.474" style="fill:rgb(1,207,255);fill-rule:nonzero;"/></svg>