<?xml version="1.0" encoding="UTF-8" standalone="no"?><!DOCTYPE svg PUBLIC "-//W3C//DTD SVG 1.1//EN" "http://www.w3.org/Graphics/SVG/1.1/DTD/svg11.dtd"><svg width="44px" height="44px" version="1.1" xmlns="http://www.w3.org/2000/svg" xmlns:xlink="http://www.w3.org/1999/xlink" xml:space="preserve" xmlns:serif="http://www.serif.com/" style="fill-rule:evenodd;clip-rule:evenodd;stroke-linejoin:round;stroke-miterlimit:1.41421;"><circle cx="21.973" cy="22.214" r="21.387" style="fill:white;"/><path d="M24.227,39.606C24.417,39.229 24.417,38.664 24.227,37.157C24.04,35.083 23.85,31.312 23.474,25.092C23.284,23.018 23.284,20.946 23.097,20.757C23.097,20.193 22.53,19.814 21.966,20.193C21.589,20.38 21.589,20.569 21.212,24.905C21.023,25.846 20.835,28.863 20.458,31.689C19.705,39.418 19.705,39.418 20.269,39.795C20.458,39.982 21.023,39.982 22.343,39.982C23.85,39.982 24.04,39.982 24.227,39.606Z" style="fill:rgb(248,176,42);"/><path d="M12.919,34.516C12.919,34.329 13.86,32.255 14.803,30.181C15.934,28.107 17.064,25.469 17.631,24.338C19.705,19.814 19.705,19.626 19.138,19.249C18.572,18.872 18.195,19.249 17.064,20.946C16.311,21.888 14.237,24.715 12.352,27.353C9.714,30.748 8.771,32.255 8.771,32.443C8.96,33.009 11.788,35.083 12.352,35.083C12.542,35.083 12.729,34.706 12.919,34.516Z" style="fill:rgb(248,176,42);"/><path d="M33.841,33.763C35.349,32.822 35.913,32.255 35.913,31.878C35.913,31.878 33.841,29.24 31.39,26.035C28.752,23.018 26.489,20.193 26.301,19.814C25.924,19.249 25.358,19.06 24.981,19.437C24.604,20.003 24.227,19.437 29.883,30.371C31.014,32.443 31.955,34.14 31.955,34.329C32.334,34.706 32.711,34.516 33.841,33.763Z" style="fill:rgb(248,176,42);"/><path d="M36.479,10.202C36.861,10.396 37.046,10.581 37.046,10.766C37.233,11.143 36.856,12.653 36.669,12.84C36.479,13.03 29.693,13.03 21.589,13.03C7.64,13.03 6.886,13.03 6.697,12.653C6.132,12.276 6.132,10.956 6.697,10.579C6.886,10.389 9.522,10.202 21.589,10.202L36.479,10.202Z" style="fill:rgb(248,176,42);"/><path d="M24.227,39.606C24.417,39.229 24.417,38.664 24.227,37.157C24.04,35.083 23.85,31.312 23.474,25.092C23.284,23.018 23.284,20.946 23.097,20.757C23.097,20.193 22.53,19.814 21.966,20.193C21.589,20.38 21.589,20.569 21.212,24.905C21.023,25.846 20.835,28.863 20.458,31.689C19.705,39.418 19.705,39.418 20.269,39.795C20.458,39.982 21.023,39.982 22.343,39.982C23.85,39.982 24.04,39.982 24.227,39.606Z" style="fill:rgb(248,176,42);"/><path d="M12.919,34.516C12.919,34.329 13.86,32.255 14.803,30.181C15.934,28.107 17.064,25.469 17.631,24.338C19.705,19.814 19.705,19.626 19.138,19.249C18.572,18.872 18.195,19.249 17.064,20.946C16.311,21.888 14.237,24.715 12.352,27.353C9.714,30.748 8.771,32.255 8.771,32.443C8.96,33.009 11.788,35.083 12.352,35.083C12.542,35.083 12.729,34.706 12.919,34.516Z" style="fill:rgb(248,176,42);"/><path d="M33.841,33.763C35.349,32.822 35.913,32.255 35.913,31.878C35.913,31.878 33.841,29.24 31.39,26.035C28.752,23.018 26.489,20.193 26.301,19.814C25.924,19.249 25.358,19.06 24.981,19.437C24.604,20.003 24.227,19.437 29.883,30.371C31.014,32.443 31.955,34.14 31.955,34.329C32.334,34.706 32.711,34.516 33.841,33.763Z" style="fill:rgb(248,176,42);"/><path d="M36.479,10.202L21.589,10.202C9.522,10.202 6.886,10.389 6.697,10.579C6.132,10.956 6.132,12.276 6.697,12.653C6.886,13.03 7.64,13.03 21.589,13.03C29.693,13.03 36.479,13.03 36.669,12.84C36.856,12.653 37.233,11.143 37.046,10.766C37.046,10.581 36.861,10.396 36.479,10.202Z" style="fill:rgb(248,176,42);"/></svg>